<svg version="1.1" viewBox="0.0 0.0 960.0 540.0" fill="none" stroke="none" stroke-linecap="square" stroke-miterlimit="10" xmlns:xlink="http://www.w3.org/1999/xlink" xmlns="http://www.w3.org/2000/svg"><clipPath id="g575ff31c98_0_5.0"><path d="m0 0l960.0 0l0 540.0l-960.0 0l0 -540.0z" clip-rule="nonzero"/></clipPath><g clip-path="url(#g575ff31c98_0_5.0)"><path fill="#ffffff" d="m0 0l960.0 0l0 540.0l-960.0 0z" fill-rule="evenodd"/><path fill="#000000" fill-opacity="0.0" d="m126.178474 10.0131235l215.84253 0l0 112.88189l-215.84253 0z" fill-rule="evenodd"/><path stroke="#78909c" stroke-width="8.0" stroke-linejoin="round" stroke-linecap="butt" d="m126.178474 10.0131235l215.84253 0l0 112.88189l-215.84253 0z" fill-rule="evenodd"/><path fill="#000000" d="m184.16296 87.77406l0 -41.984375l5.5625 0l0 41.984375l-5.5625 0zm34.421585 0l0 -3.84375q-2.890625 4.53125 -8.5 4.53125q-3.640625 0 -6.6875 -2.0q-3.046875 -2.015625 -4.734375 -5.609375q-1.671875 -3.59375 -1.671875 -8.25q0 -4.5625 1.515625 -8.265625q1.53125 -3.71875 4.5625 -5.6875q3.03125 -1.984375 6.78125 -1.984375q2.75 0 4.890625 1.171875q2.15625 1.15625 3.5 3.015625l0 -15.0625l5.140625 0l0 41.984375l-4.796875 0zm-16.296875 -15.171875q0 5.828125 2.46875 8.734375q2.46875 2.890625 5.8125 2.890625q3.375 0 5.734375 -2.765625q2.375 -2.765625 2.375 -8.4375q0 -6.25 -2.40625 -9.171875q-2.40625 -2.921875 -5.9375 -2.921875q-3.421875 0 -5.734375 2.8125q-2.3125 2.8125 -2.3125 8.859375zm29.137436 15.171875l0 -30.421875l4.640625 0l0 4.609375q1.765625 -3.234375 3.265625 -4.265625q1.515625 -1.03125 3.3125 -1.03125q2.609375 0 5.296875 1.671875l-1.765625 4.78125q-1.890625 -1.125 -3.78125 -1.125q-1.6875 0 -3.046875 1.015625q-1.34375 1.015625 -1.90625 2.828125q-0.859375 2.75 -0.859375 6.015625l0 15.921875l-5.15625 0zm19.611115 -36.0625l0 -5.921875l5.15625 0l0 5.921875l-5.15625 0zm0 36.0625l0 -30.421875l5.15625 0l0 30.421875l-5.15625 0zm10.937775 -9.078125l5.109375 -0.796875q0.421875 3.0625 2.375 4.703125q1.96875 1.625 5.5 1.625q3.546875 0 5.265625 -1.4375q1.71875 -1.453125 1.71875 -3.40625q0 -1.75 -1.515625 -2.75q-1.0625 -0.6875 -5.265625 -1.75q-5.671875 -1.4375 -7.875 -2.46875q-2.1875 -1.046875 -3.328125 -2.890625q-1.125 -1.859375 -1.125 -4.09375q0 -2.03125 0.9375 -3.765625q0.9375 -1.734375 2.53125 -2.875q1.203125 -0.890625 3.28125 -1.5q2.078125 -0.625 4.453125 -0.625q3.578125 0 6.28125 1.03125q2.71875 1.03125 4.0 2.796875q1.296875 1.765625 1.78125 4.71875l-5.046875 0.6875q-0.34375 -2.359375 -2.0 -3.671875q-1.640625 -1.3125 -4.640625 -1.3125q-3.546875 0 -5.078125 1.171875q-1.515625 1.171875 -1.515625 2.75q0 1.0 0.640625 1.796875q0.625 0.828125 1.96875 1.375q0.78125 0.296875 4.5625 1.328125q5.46875 1.453125 7.625 2.390625q2.171875 0.921875 3.390625 2.703125q1.234375 1.765625 1.234375 4.40625q0 2.578125 -1.5 4.859375q-1.5 2.28125 -4.34375 3.53125q-2.828125 1.234375 -6.40625 1.234375q-5.9375 0 -9.046875 -2.453125q-3.109375 -2.46875 -3.96875 -7.3125z" fill-rule="nonzero"/><path fill="#000000" fill-opacity="0.0" d="m387.84985 10.0131235l215.84253 0l0 112.88189l-215.84253 0z" fill-rule="evenodd"/><path stroke="#78909c" stroke-width="8.0" stroke-linejoin="round" stroke-linecap="butt" d="m387.84985 10.0131235l215.84253 0l0 112.88189l-215.84253 0z" fill-rule="evenodd"/><path fill="#000000" d="m404.31293 87.77406l0 -41.984375l5.546875 0l0 17.234375l21.828125 0l0 -17.234375l5.5625 0l0 41.984375l-5.5625 0l0 -19.796875l-21.828125 0l0 19.796875l-5.546875 0zm61.375305 -3.75q-2.875 2.4375 -5.53125 3.4375q-2.640625 1.0 -5.671875 1.0q-5.015625 0 -7.703125 -2.4375q-2.6875 -2.453125 -2.6875 -6.265625q0 -2.234375 1.015625 -4.078125q1.015625 -1.859375 2.65625 -2.96875q1.65625 -1.125 3.71875 -1.6875q1.515625 -0.40625 4.578125 -0.78125q6.234375 -0.734375 9.1875 -1.765625q0.03125 -1.0625 0.03125 -1.359375q0 -3.140625 -1.453125 -4.4375q-1.984375 -1.75 -5.875 -1.75q-3.640625 0 -5.375 1.28125q-1.734375 1.28125 -2.5625 4.515625l-5.046875 -0.6875q0.6875 -3.234375 2.265625 -5.21875q1.578125 -2.0 4.546875 -3.078125q2.984375 -1.078125 6.90625 -1.078125q3.90625 0 6.328125 0.921875q2.4375 0.921875 3.578125 2.3125q1.15625 1.375 1.609375 3.5q0.265625 1.3125 0.265625 4.75l0 6.875q0 7.1875 0.328125 9.09375q0.328125 1.90625 1.296875 3.65625l-5.375 0q-0.8125 -1.609375 -1.03125 -3.75zm-0.4375 -11.515625q-2.796875 1.140625 -8.421875 1.953125q-3.171875 0.453125 -4.5 1.03125q-1.3125 0.5625 -2.03125 1.671875q-0.703125 1.09375 -0.703125 2.453125q0 2.0625 1.546875 3.4375q1.5625 1.375 4.578125 1.375q2.96875 0 5.28125 -1.296875q2.328125 -1.3125 3.421875 -3.578125q0.828125 -1.75 0.828125 -5.15625l0 -1.890625zm11.137421 6.1875l5.109375 -0.796875q0.421875 3.0625 2.375 4.703125q1.96875 1.625 5.5 1.625q3.546875 0 5.265625 -1.4375q1.71875 -1.453125 1.71875 -3.40625q0 -1.75 -1.515625 -2.75q-1.0625 -0.6875 -5.265625 -1.75q-5.671875 -1.4375 -7.875 -2.46875q-2.1875 -1.046875 -3.328125 -2.890625q-1.125 -1.859375 -1.125 -4.09375q0 -2.03125 0.9375 -3.765625q0.9375 -1.734375 2.53125 -2.875q1.203125 -0.890625 3.28125 -1.5q2.078125 -0.625 4.453125 -0.625q3.578125 0 6.28125 1.03125q2.71875 1.03125 4.0 2.796875q1.296875 1.765625 1.78125 4.71875l-5.046875 0.6875q-0.34375 -2.359375 -2.0 -3.671875q-1.640625 -1.3125 -4.640625 -1.3125q-3.546875 0 -5.078125 1.171875q-1.515625 1.171875 -1.515625 2.75q0 1.0 0.640625 1.796875q0.625 0.828125 1.96875 1.375q0.78125 0.296875 4.5625 1.328125q5.46875 1.453125 7.625 2.390625q2.171875 0.921875 3.390625 2.703125q1.234375 1.765625 1.234375 4.40625q0 2.578125 -1.5 4.859375q-1.5 2.28125 -4.34375 3.53125q-2.828125 1.234375 -6.40625 1.234375q-5.9375 0 -9.046875 -2.453125q-3.109375 -2.46875 -3.96875 -7.3125zm31.421875 9.078125l0 -41.984375l5.1562805 0l0 23.9375l12.203125 -12.375l6.671875 0l-11.625 11.296875l12.796875 19.125l-6.359375 0l-10.046875 -15.546875l-3.640625 3.484375l0 12.0625l-5.1562805 0zm50.12503 -9.796875l5.328125 0.65625q-1.265625 4.671875 -4.671875 7.25q-3.40625 2.578125 -8.703125 2.578125q-6.671875 0 -10.59375 -4.109375q-3.90625 -4.109375 -3.90625 -11.53125q0 -7.671875 3.953125 -11.90625q3.953125 -4.25 10.265625 -4.25q6.09375 0 9.953125 4.15625q3.875 4.15625 3.875 11.6875q0 0.453125 -0.03125 1.375l-22.6875 0q0.296875 5.015625 2.84375 7.6875q2.546875 2.65625 6.359375 2.65625q2.828125 0 4.828125 -1.484375q2.015625 -1.5 3.1875 -4.765625zm-16.921875 -8.328125l16.984375 0q-0.34375 -3.84375 -1.953125 -5.765625q-2.46875 -2.96875 -6.390625 -2.96875q-3.546875 0 -5.96875 2.375q-2.421875 2.375 -2.671875 6.359375zm28.60614 18.125l0 -41.984375l5.15625 0l0 41.984375l-5.15625 0zm13.031555 0l0 -41.984375l5.15625 0l0 41.984375l-5.15625 0z" fill-rule="nonzero"/><path fill="#000000" fill-opacity="0.0" d="m649.52124 10.0131235l215.84253 0l0 112.88189l-215.84253 0z" fill-rule="evenodd"/><path stroke="#78909c" stroke-width="8.0" stroke-linejoin="round" stroke-linecap="butt" stroke-dasharray="32.0,24.0" d="m649.52124 10.0131235l215.84253 0l0 112.88189l-215.84253 0z" fill-rule="evenodd"/><path fill="#000000" d="m688.87 87.77406l16.109375 -41.984375l6.0 0l17.171875 41.984375l-6.328125 0l-4.890625 -12.71875l-17.5625 0l-4.609375 12.71875l-5.890625 0zm12.109375 -17.234375l14.234375 0l-4.390625 -11.640625q-2.0 -5.296875 -2.96875 -8.703125q-0.8125 4.046875 -2.265625 8.015625l-4.609375 12.328125zm30.013916 19.75l5.015625 0.75q0.3125 2.3125 1.75 3.375q1.90625 1.4375 5.234375 1.4375q3.578125 0 5.515625 -1.4375q1.953125 -1.421875 2.640625 -4.0q0.40625 -1.578125 0.375 -6.625q-3.375 3.984375 -8.421875 3.984375q-6.265625 0 -9.703125 -4.515625q-3.4375 -4.53125 -3.4375 -10.859375q0 -4.359375 1.578125 -8.03125q1.578125 -3.6875 4.5625 -5.6875q3.0 -2.015625 7.03125 -2.015625q5.390625 0 8.875 4.359375l0 -3.671875l4.765625 0l0 26.296875q0 7.109375 -1.453125 10.0625q-1.4375 2.96875 -4.578125 4.6875q-3.140625 1.71875 -7.71875 1.71875q-5.4375 0 -8.796875 -2.453125q-3.34375 -2.4375 -3.234375 -7.375zm4.265625 -18.265625q0 5.984375 2.375 8.734375q2.375 2.75 5.953125 2.75q3.5625 0 5.96875 -2.734375q2.40625 -2.734375 2.40625 -8.578125q0 -5.59375 -2.484375 -8.421875q-2.46875 -2.84375 -5.96875 -2.84375q-3.4375 0 -5.84375 2.796875q-2.40625 2.796875 -2.40625 8.296875zm49.028076 15.75l0 -3.84375q-2.890625 4.53125 -8.5 4.53125q-3.640625 0 -6.6875 -2.0q-3.046875 -2.015625 -4.734375 -5.609375q-1.671875 -3.59375 -1.671875 -8.25q0 -4.5625 1.515625 -8.265625q1.53125 -3.71875 4.5625 -5.6875q3.03125 -1.984375 6.78125 -1.984375q2.75 0 4.890625 1.171875q2.15625 1.15625 3.5 3.015625l0 -15.0625l5.140625 0l0 41.984375l-4.796875 0zm-16.296875 -15.171875q0 5.828125 2.46875 8.734375q2.46875 2.890625 5.8125 2.890625q3.375 0 5.734375 -2.765625q2.375 -2.765625 2.375 -8.4375q0 -6.25 -2.40625 -9.171875q-2.40625 -2.921875 -5.9375 -2.921875q-3.421875 0 -5.734375 2.8125q-2.3125 2.8125 -2.3125 8.859375zm49.04364 11.421875q-2.875 2.4375 -5.53125 3.4375q-2.640625 1.0 -5.671875 1.0q-5.015625 0 -7.703125 -2.4375q-2.6875 -2.453125 -2.6875 -6.265625q0 -2.234375 1.015625 -4.078125q1.015625 -1.859375 2.65625 -2.96875q1.65625 -1.125 3.71875 -1.6875q1.515625 -0.40625 4.578125 -0.78125q6.234375 -0.734375 9.1875 -1.765625q0.03125 -1.0625 0.03125 -1.359375q0 -3.140625 -1.453125 -4.4375q-1.984375 -1.75 -5.875 -1.75q-3.640625 0 -5.375 1.28125q-1.734375 1.28125 -2.5625 4.515625l-5.046875 -0.6875q0.6875 -3.234375 2.265625 -5.21875q1.578125 -2.0 4.546875 -3.078125q2.984375 -1.078125 6.90625 -1.078125q3.90625 0 6.328125 0.921875q2.4375 0.921875 3.578125 2.3125q1.15625 1.375 1.609375 3.5q0.265625 1.3125 0.265625 4.75l0 6.875q0 7.1875 0.328125 9.09375q0.328125 1.90625 1.296875 3.65625l-5.375 0q-0.8125 -1.609375 -1.03125 -3.75zm-0.4375 -11.515625q-2.796875 1.140625 -8.421875 1.953125q-3.171875 0.453125 -4.5 1.03125q-1.3125 0.5625 -2.03125 1.671875q-0.703125 1.09375 -0.703125 2.453125q0 2.0625 1.546875 3.4375q1.5625 1.375 4.578125 1.375q2.96875 0 5.28125 -1.296875q2.328125 -1.3125 3.421875 -3.578125q0.828125 -1.75 0.828125 -5.15625l0 -1.890625z" fill-rule="nonzero"/><path fill="#000000" fill-opacity="0.0" d="m387.8521 214.51141l215.84253 0l0 112.8819l-215.84253 0z" fill-rule="evenodd"/><path stroke="#78909c" stroke-width="8.0" stroke-linejoin="round" stroke-linecap="butt" d="m387.8521 214.51141l215.84253 0l0 112.8819l-215.84253 0z" fill-rule="evenodd"/><path fill="#000000" d="m446.62494 275.8036l0 -4.921875l17.78125 -0.03125l0 15.578125q-4.09375 3.265625 -8.453125 4.921875q-4.34375 1.640625 -8.921875 1.640625q-6.1875 0 -11.25 -2.640625q-5.046875 -2.65625 -7.625 -7.671875q-2.578125 -5.015625 -2.578125 -11.203125q0 -6.125 2.5625 -11.4375q2.5625 -5.3124847 7.375 -7.8906097q4.8125 -2.578125 11.078125 -2.578125q4.5625 0 8.234375 1.484375q3.6875 1.46875 5.765625 4.109375q2.09375 2.6249847 3.1875 6.8593597l-5.015625 1.375q-0.9375 -3.203125 -2.34375 -5.03125q-1.40625 -1.84375 -4.015625 -2.9374847q-2.59375 -1.109375 -5.78125 -1.109375q-3.8125 0 -6.59375 1.171875q-2.765625 1.1562347 -4.46875 3.0468597q-1.703125 1.890625 -2.65625 4.15625q-1.609375 3.890625 -1.609375 8.4375q0 5.625 1.9375 9.40625q1.9375 3.765625 5.625 5.609375q3.703125 1.828125 7.859375 1.828125q3.609375 0 7.03125 -1.390625q3.4375 -1.390625 5.21875 -2.96875l0 -7.8125l-12.34375 0zm26.062225 16.46875l0 -41.98436l18.625 0q5.609375 0 8.53125 1.140625q2.921875 1.125 4.65625 3.984375q1.75 2.8593597 1.75 6.3281097q0 4.46875 -2.890625 7.53125q-2.890625 3.0625 -8.9375 3.890625q2.21875 1.0625 3.359375 2.09375q2.4375 2.234375 4.609375 5.59375l7.296875 11.421875l-6.984375 0l-5.546875 -8.734375q-2.4375 -3.78125 -4.015625 -5.78125q-1.578125 -2.015625 -2.828125 -2.8125q-1.234375 -0.796875 -2.53125 -1.109375q-0.9375 -0.203125 -3.09375 -0.203125l-6.4375 0l0 18.640625l-5.5625 0zm5.5625 -23.453125l11.9375 0q3.8125 0 5.953125 -0.78125q2.15625 -0.796875 3.265625 -2.53125q1.125 -1.734375 1.125 -3.765625q0 -2.984375 -2.171875 -4.890625q-2.15625 -1.9218597 -6.828125 -1.9218597l-13.28125 0l0 13.89061zm37.656525 23.453125l0 -41.98436l5.5625 0l0 41.98436l-5.5625 0zm15.29657 0l0 -41.98436l5.703125 0l22.046875 32.968735l0 -32.968735l5.328125 0l0 41.98436l-5.703125 0l-22.046875 -33.0l0 33.0l-5.328125 0z" fill-rule="nonzero"/><path fill="#000000" fill-opacity="0.0" d="m387.8521 419.0097l215.84253 0l0 112.8819l-215.84253 0z" fill-rule="evenodd"/><path stroke="#78909c" stroke-width="8.0" stroke-linejoin="round" stroke-linecap="butt" d="m387.8521 419.0097l215.84253 0l0 112.8819l-215.84253 0z" fill-rule="evenodd"/><path fill="#000000" d="m425.63333 496.77063l0 -41.984375l5.5625 0l0 37.03125l20.671875 0l0 4.953125l-26.234375 0zm32.621826 0l0 -41.984375l5.5625 0l0 37.03125l20.671875 0l0 4.953125l-26.234375 0zm40.502014 0l-16.28125 -41.984375l6.015625 0l10.921875 30.5q1.3125 3.671875 2.203125 6.875q0.96875 -3.4375 2.265625 -6.875l11.3437195 -30.5l5.671875 0l-16.453094 41.984375l-5.6875 0zm26.951385 0l0 -41.984375l8.359375 0l9.9375 29.71875q1.375 4.15625 2.0 6.21875q0.71875 -2.28125 2.234375 -6.734375l10.0625 -29.203125l7.46875 0l0 41.984375l-5.359375 0l0 -35.140625l-12.203125 35.140625l-5.0 0l-12.15625 -35.75l0 35.75l-5.34375 0z" fill-rule="nonzero"/><path fill="#000000" fill-opacity="0.0" d="m234.09973 122.89501l167.93701 87.37008" fill-rule="evenodd"/><path stroke="#595959" stroke-width="8.0" stroke-linejoin="round" stroke-linecap="butt" d="m234.09973 122.89501l143.61499 74.71644" fill-rule="evenodd"/><path fill="#595959" stroke="#595959" stroke-width="8.0" stroke-linecap="butt" d="m377.71472 197.61145l-12.133392 3.8289185l26.080292 3.4270172l-17.775818 -19.389343z" fill-rule="evenodd"/><path fill="#000000" fill-opacity="0.0" d="m495.77112 122.89501l0 91.62205" fill-rule="evenodd"/><path stroke="#595959" stroke-width="8.0" stroke-linejoin="round" stroke-linecap="butt" d="m495.77112 122.89501l0 64.20536" fill-rule="evenodd"/><path fill="#595959" stroke="#595959" stroke-width="8.0" stroke-linecap="butt" d="m495.77112 187.10037l-8.996674 -8.996674l8.996674 24.71814l8.996674 -24.71814z" fill-rule="evenodd"/><path fill="#000000" fill-opacity="0.0" d="m495.77338 327.3933l0 91.62204" fill-rule="evenodd"/><path stroke="#595959" stroke-width="8.0" stroke-linejoin="round" stroke-linecap="butt" d="m495.77338 327.39328l0 64.20535" fill-rule="evenodd"/><path fill="#595959" stroke="#595959" stroke-width="8.0" stroke-linecap="butt" d="m495.77338 391.59863l-8.996674 -8.996643l8.996674 24.71814l8.996674 -24.71814z" fill-rule="evenodd"/><path fill="#000000" fill-opacity="0.0" d="m757.4383 122.89501l-167.93695 87.37008" fill-rule="evenodd"/><path stroke="#595959" stroke-width="8.0" stroke-linejoin="round" stroke-linecap="butt" d="m757.4383 122.89501l-143.61499 74.71644" fill-rule="evenodd"/><path fill="#595959" stroke="#595959" stroke-width="8.0" stroke-linecap="butt" d="m613.8233 197.61145l3.8289185 -12.133408l-17.775818 19.389343l26.080322 -3.4270172z" fill-rule="evenodd"/></g></svg>