<svg id="Layer_1" data-name="Layer 1" xmlns="http://www.w3.org/2000/svg" viewBox="0 0 360 122.53"><defs><style>.cls-1{fill:none;}.cls-2,.cls-3{fill:#192d5b;}.cls-3{fill-rule:evenodd;}</style></defs><title>Artboard 6</title><rect class="cls-1" width="360" height="122.53"/><path class="cls-2" d="M268.13,68.73a7.66,7.66,0,0,1-15.31,0V53.41H249V68.73a11.48,11.48,0,0,0,22.95,0V53.41h-3.82Z"/><rect class="cls-2" x="187.74" y="42.03" width="3.85" height="38.18"/><path class="cls-2" d="M134.07,53.41a11.42,11.42,0,0,0-7.63,2.91V42h-3.85V80.2h3.85V64.29a7.65,7.65,0,0,1,15.28.6V80.2h3.82V64.89A11.49,11.49,0,0,0,134.07,53.41Z"/><path class="cls-2" d="M292.2,64.92l-.91-.16c-3-.52-6.83-1.17-6.91-3.91a2.81,2.81,0,0,1,.83-2.13c1.14-1.16,3.4-1.85,6.05-1.85h.19A10.46,10.46,0,0,1,299,59.35l.42.36,2.34-2.44-.43-.4a14.09,14.09,0,0,0-9.86-3.48h-.19c-3.65,0-6.8,1-8.63,2.88a6.27,6.27,0,0,0-1.86,4.65c.06,5.58,5.78,6.51,10.38,7.26s7.86,1.46,7.78,4.33c-.15,3.76-5.18,4.17-7.33,4.17-3.76,0-7.06-1.49-8.83-4l-.38-.53-2.73,2.37L280,75c2.19,3.29,6.53,5.24,11.6,5.24,2.54,0,10.83-.54,11-7.49C302.85,66.66,296.69,65.65,292.2,64.92Z"/><path class="cls-2" d="M210.68,53.41A11.49,11.49,0,0,0,199.2,64.89V80.2H203V64.89a7.66,7.66,0,0,1,15.31,0V80.2h3.82V64.89A11.49,11.49,0,0,0,210.68,53.41Z"/><path class="cls-2" d="M229.86,53.41a11.43,11.43,0,0,0-6.9,2.31,15.22,15.22,0,0,1,1.92,3.38,7.58,7.58,0,0,1,5-1.86,7.66,7.66,0,0,1,7.66,7.65V80.2h3.82V64.89A11.49,11.49,0,0,0,229.86,53.41Z"/><path class="cls-2" d="M166.66,57.24a9.57,9.57,0,1,1-9.57,9.57,9.58,9.58,0,0,1,9.57-9.57m0-3.83a13.4,13.4,0,1,0,13.4,13.4,13.4,13.4,0,0,0-13.4-13.4Z"/><polygon class="cls-2" points="314.06 64.89 314.06 42.03 310.19 42.03 310.19 80.2 314.06 80.2 314.06 68.74 317.92 68.74 329.44 80.2 334.6 80.2 319.13 64.89 314.06 64.89"/><polygon class="cls-2" points="334.6 53.39 329.3 53.39 321.37 60.73 323.9 63.04 334.6 53.39"/><path class="cls-3" d="M26.85,26.79V95.73H95.79V26.79Zm35.43,51.3H59.06V64.41a6.45,6.45,0,1,0-12.9,0V78.09H42.94V44h3.24V57.18a9.57,9.57,0,0,1,6.43-2.48,9.7,9.7,0,0,1,9.67,9.71ZM79.7,64V77.68H76.48V64h0a6.44,6.44,0,0,0-11.43-4.11,11.9,11.9,0,0,0-1.24-2.47l-.35-.53A9.6,9.6,0,0,1,70,54.29h0c.28,0,.56,0,.84,0l.21,0,.82.13.17,0,.67.17.2.06c.25.08.49.17.73.27l.23.1c.19.08.38.18.57.28l.2.11a6,6,0,0,1,.6.36l.26.17.5.38.3.25.34.31.26.26c.15.15.29.32.44.48s.16.21.25.31l.22.3.22.32h0A9.66,9.66,0,0,1,79.7,64Z"/></svg>